<svg xmlns="http://www.w3.org/2000/svg" width="250" height="250">
  <path fill="none" stroke="None" d="M0 250h250V0H0v250M84 29l9 1c1 0 3-1 4 1 5 1 10 1 14 3l1 1 6 1 1 1c8 2 2 18 2 23 0 1 2 3-1 3 3 3-1 15-2 21l-2 7h-1l-1 6c-2 6-4 11-8 15-2 3-1 7-6 9-1 4-5 4-7 6l-13 14c1 1-2 14-3 16l-6 17-1 3c-3 10-2 17-4 26l4 6c4-2 6 3 9 2 4 0 11 7 6 9-4 4-10 1-13 0-8 2-19-6-26-6-6 1-16-8-8-11 8-2 8 2 18 1 2-5 5-5 6-11 0-7 4-11 3-19 5 1 1-8 4-12 3-3 1-11 3-15s1-12 2-16l-7-10c0-2-3-11-2-12-1-4-3-13-2-15s-1-12 2-13c-3-3 1-3 1-4 0-2-1-4 1-5-2-4 3-16 4-17l3-5c-2-2 3-12 5-13 2-4 0-8 5-8m92 17 1 3 1 3c0 1 2 2 1 3 1 0 4 8 3 10l2 2 2 9c1 11 3 23 0 34 0 1 1 3-1 3v3c-1 4-4 12-7 14-5 17 10 50 12 70 2 0 3 2 4 3 6 2 18-3 23 4l-3 2-1 2c-8 7-24 7-35 9-3 1-6 2-10 1-2-1-4-1-5-3 6-6 10-9 18-9 2-5 4-10 2-16l-4-18c-1-6-4-11-3-17-3 4-1-3-3-5l-1-10c-2 3-3 0-1-2l-1-2-3-4c-6-6-13-10-18-16l-3-5c-5-9-8-13-10-20l-1-6c-5-12-5-26-6-37V37h3l4-2c7-2 16-6 24-5h1c2-3 5 0 8-2 3 8 7 12 7 18M65 178c2 2-1-1 0 0Z"/>
  <path fill="#D1D2D5" fill-opacity=".4" stroke="None" d="m79 37 2-1 1-4 2-3c-5 0-3 4-5 8Z"/>
  <path fill="#CACBCC" fill-opacity=".5" stroke="None" d="m161 30 4 1c7 3 5 11 10 15h1c0-6-4-10-7-18-3 2-6-1-8 2Z"/>
  <path fill="#B2B2B2" stroke="None" d="M82 32c0 1-2 11-5 17a87 87 0 0 0-6 23h4c3-6 4-16 7-22s3-19 11-19v-1l-9-1-2 3Z"/>
  <path fill="#929397" fill-opacity=".9" stroke="None" d="m93 31-2 2 21 5 4 1h4l-1-2-1-1h-4l-20-3 3-1v-1c-1-2-3-1-4-1v1Z"/>
  <path fill="#C8C8CB" fill-opacity=".4" stroke="None" d="M136 35v1c8-1 16-5 24-5v-1c-8-1-17 3-24 5Z"/>
  <path fill="#717174" stroke="None" d="M160 31h1l3 1-4 1c1 5 6 14 6 19s9 15 6 20h5l-4-14c-2-4-1-11-4-14s-2-11-4-13l-4-1h-1v1Z"/>
  <path fill="#565658" stroke="None" d="m82 32-1 4-6 14-3 8-4 14 3-1c1-6 3-16 6-22s5-16 5-17Z"/>
  <path fill="#191A1E" stroke="None" d="M75 72c11 1 22 4 32 7-1-4 3-10 2-14s3-8 2-12 3-12 1-15a490 490 0 0 1-19-7c-8 0-8 13-11 19s-4 16-7 22Z"/>
  <path fill="#C9CBCD" fill-opacity=".4" stroke="None" d="M97 32c3 2 11 3 14 2-4-2-9-2-14-3v1Z"/>
  <path fill="#1A1A1E" stroke="None" d="M136 36c2 2 6-1 9 0l-9 2a585 585 0 0 0 6 42c8-5 21-7 30-8 3-5-6-15-6-20s-5-14-6-19c0-1-2 0 1-2h-1c-8 0-16 4-24 5Z"/>
  <path fill="#ADAEB0" stroke="None" d="m160 33 4-1-3-1c-3 2-1 1-1 2Z"/>
  <path fill="#1C1D20" stroke="None" d="M177 72h5l-1-7a250 250 0 0 0-6-19c-5-4-3-12-10-15 2 2 1 10 4 13s2 10 4 14l4 14Z"/>
  <path fill="#2A2B2F" fill-opacity=".9" stroke="None" d="m114 36-2-1-1-1c-3 1-11 0-14-2l-3 1 20 3Z"/>
  <path fill="#939498" stroke="None" d="M157 33c-4 0-8 1-11 3 4 0 8-1 11-3Z"/>
  <path fill="#E0E1E8" fill-opacity=".4" stroke="None" d="M114 36h4l-6-1 2 1Z"/>
  <path fill="#B0B0B1" stroke="None" d="m132 37-2 2c0 3 5 15 3 21-1 5 2 5 2 10l2 11 4-1-5-42 9-2c-3-1-7 2-9 0v-1l-4 2Z"/>
  <path fill="#D1D2D5" fill-opacity=".5" stroke="None" d="M79 37c-2 1-7 11-5 13h1l6-14-2 1Z"/>
  <path fill="#D7D8D9" fill-opacity=".5" stroke="None" d="M120 39c3 5 0 17-1 23l2-2c0-5 6-21-2-23l1 2Z"/>
  <path fill="#DADBDB" fill-opacity=".5" stroke="None" d="M129 46v5c1 11 1 25 6 37l1 1v-4l-1-2-3-21c0-6-4-17-2-23l2-2h-3v9Z"/>
  <path fill="#717275" stroke="None" d="m107 79 4 1c-2-6 4-14 3-20s4-14 2-21l-4-1c2 3-2 11-1 15s-3 8-2 12-3 10-2 14Z"/>
  <path fill="#1D1E22" stroke="None" d="m111 80 5 3c0-7 2-13 3-20v-1c1-6 4-18 1-23h-4c2 7-3 15-2 21s-5 14-3 20Z"/>
  <path fill="#575759" stroke="None" d="m135 83 2-1v-1l-2-11c0-5-3-5-2-10 2-6-3-18-3-21-2 6 2 17 2 23l3 21Z"/>
  <path fill="#D6D7D8" fill-opacity=".1" stroke="None" d="M129 51v-5 5Z"/>
  <path fill="#D5D5D7" fill-opacity=".7" stroke="None" d="M178 55h1c1-1-1-2-1-3l-1-3-1-3h-1c0 2 1 8 3 9Z"/>
  <path fill="#D7D7D7" fill-opacity=".1" stroke="None" d="m178 52-1-3 1 3Z"/>
  <path fill="#C6C7C8" fill-opacity=".7" stroke="None" d="m71 55 1 3 3-8h-1l-3 5Z"/>
  <path fill="#E2E2E3" fill-opacity=".5" stroke="None" d="M67 72h1l4-14-1-3c-1 1-6 13-4 17Z"/>
  <path fill="#D8D8D9" fill-opacity=".6" stroke="None" d="M181 65h1c1-2-2-10-3-10h-1l3 10Z"/>
  <path fill="#F4F4F5" fill-opacity=".2" stroke="None" d="M119 62v1h1c3 0 1-2 1-3l-2 2Z"/>
  <path fill="#D2D3D4" fill-opacity=".5" stroke="None" d="M116 83v1h2c1-6 5-18 2-21h-1c-1 7-3 13-3 20Z"/>
  <path fill="#CDC9CB" fill-opacity=".7" stroke="None" d="m182 72 1 2 1 1v-8l-2-2h-1l1 7Z"/>
  <path fill="#D6D6D7" fill-opacity=".2" stroke="None" d="M184 75v1c0 1 2 2 1 3l1-3-2-9v8Z"/>
  <path fill="#F76479" stroke="None" d="m68 72-2 7v2l-1 13c-1 5 2 10 1 14 3 12 14 28 27 18 12-11 15-19 20-32v-2l2-7-6 1c-3 12-8 26-19 33 7-10 12-22 14-34-5 2-11-4-15 0-1-5-10-5-15-7-4 11-2 24-4 35-3-11-3-26 0-37l1-4v-1l-3 1Z"/>
  <path fill="#EFE5E4" fill-opacity=".7" stroke="None" d="M66 77v2l2-7h-1c-2 1-1 3-1 5Z"/>
  <path fill="#FABCC6" stroke="None" d="m70 76 4 1c-1-2 1-3 1-5h-4l-1 4Z"/>
  <path fill="#F88495" stroke="None" d="M70 76c-3 11-3 26 0 37 2-11 0-24 4-35 5 2 14 2 15 7 4-4 10 2 15 0-2 12-7 24-14 34 11-7 16-21 19-33l6-1 1-1v-1l-5-3-4-1c-10-3-21-6-32-7 0 2-2 3-1 5l-4-1Z"/>
  <path fill="#F88596" stroke="None" d="M142 80v5c-3 1-4-1-5-3l-2 1 1 2c9 7 7 27 19 33-4-11-11-21-12-33 11 0 21-3 31-6 4 11 1 25 3 36 4-12 4-26 1-38l5-3-1-2h-10c-9 1-22 3-30 8Z"/>
  <path fill="#F76379" stroke="None" d="M136 85v3c2 8 6 16 11 23s8 13 17 17c9 5 16-6 19-13l1-2 1-5c2-11-2-21-1-32v-1l-1-1-5 3c3 12 3 26-1 38-2-11 1-25-3-36-10 3-20 6-31 6 1 12 8 22 12 33-12-6-10-26-19-33Z"/>
  <path fill="#EAE3E5" fill-opacity=".5" stroke="None" d="m185 108 1 2c3-11 1-23 0-34l-1 3c1-1-1-2-1-3-1 11 3 21 1 32Z"/>
  <path fill="#ECF1F0" fill-opacity=".2" stroke="None" d="M65 81h1v-4c0 1-4 1-1 4Z"/>
  <path fill="#F4BDC5" stroke="None" d="M137 81v1c1 2 2 4 5 3v-5h-1l-4 1Z"/>
  <path fill="#E1DCDD" fill-opacity=".5" stroke="None" d="m65 109 1-1c1-4-2-9-1-14l1-13h-1c-3 1-1 11-2 13s1 11 2 15Z"/>
  <path fill="#DCC3C7" fill-opacity=".8" stroke="None" d="m115 85-2 7 2-1h1v-7l-1 1Z"/>
  <path fill="#E2E3E4" fill-opacity=".2" stroke="None" d="m116 91 2-7h-2v7Z"/>
  <path fill="#F4F6F5" fill-opacity=".1" stroke="None" d="M136 94v-5l-1-1 1 6Z"/>
  <path fill="#E0D6D8" fill-opacity=".7" stroke="None" d="M136 89v5c2 7 5 11 10 20l3 5c5 6 12 10 18 16l3 4 1 2h1l-5-10c3 1 8-4 9 0l2-1c3-2 6-10 7-14l-2-1c-3 7-10 18-19 13-9-4-12-10-17-17s-9-15-11-23v1Z"/>
  <path fill="#F1F1F1" fill-opacity=".5" stroke="None" d="M113 92v2l1 3 1-6-2 1Z"/>
  <path fill="#E5DCDE" fill-opacity=".7" stroke="None" d="m66 108-1 1c-1 1 2 10 2 12l7 10h1c1-4 7 1 10 0-2 3-6 6-6 10h1l13-14c2-2 4-6 7-7l6-8c4-4 6-9 8-15l-1-3c-5 13-8 21-20 32-13 10-24-6-27-18Z"/>
  <path fill="#DECED0" fill-opacity=".6" stroke="None" d="M184 113h1c2 0 1-2 1-3l-1-2-1 5Z"/>
  <path fill="#DFDEDF" fill-opacity=".1" stroke="None" d="M100 120v1c5-2 4-6 6-9l-6 8Z"/>
  <path fill="#D2D6D5" fill-opacity=".4" stroke="None" d="m146 114 3 5-3-5Z"/>
  <path fill="#F0EEEE" fill-opacity=".4" stroke="None" d="m183 115 2 1v-3h-1l-1 2Z"/>
  <path fill="#D6D8D8" fill-opacity=".3" stroke="None" d="M93 127c2-2 6-2 7-6v-1c-3 1-5 5-7 7Z"/>
  <path fill="#232427" stroke="None" d="M75 131c4 8-3 18-2 26 3-5 3-12 6-16 0-4 4-7 6-10-3 1-9-4-10 0Z"/>
  <path fill="#1F2124" stroke="None" d="m172 141 5 18c2-8-5-19-1-28-1-4-6 1-9 0l5 10Z"/>
  <path fill="#CFCFD1" fill-opacity=".5" stroke="None" d="M176 131c-4 9 3 20 1 28l-5-18h-1c-2 2-1 5 1 2l1 10c2 2 0 9 3 5-1 6 2 11 3 17l4 18 1-3v-3c0-2-2-3-1-5l2 5c1 5 2 10 5 14 1 2 4 2 4 2-1-1-2-3-4-3-2-20-17-53-12-70l-2 1m6 42c0 3 2 5 1 8-1-2-3-6-1-8Z"/>
  <path fill="#CDCFD1" fill-opacity=".5" stroke="None" d="m62 193 1 1 2-7c2 4-1 11 0 16h1c2-9 1-16 4-26 0 1-4-2-1-6 2 0 0 3 2 3l6-17c1-2 4-15 3-16h-1c-3 4-3 11-6 16-1-8 6-18 2-26h-1c-1 4 0 12-2 16s0 12-3 15c-3 4 1 13-4 12 1 8-3 12-3 19m11-35c1 3-2 5-1 8-2-2-1-6 1-8m-5 21c0 2 0 5-2 7 0-2 0-5 2-7Z"/>
  <path fill="#CECECF" fill-opacity=".1" stroke="None" d="m170 139-3-4 3 4Z"/>
  <path fill="#4E4F50" fill-opacity=".3" stroke="None" d="M73 158c-2 2-3 6-1 8-1-3 2-5 1-8Z"/>
  <path fill="#7C7D80" fill-opacity=".4" stroke="None" d="m70 177 1-3c-2 0 0-3-2-3-3 4 1 7 1 6Z"/>
  <path fill="#535457" fill-opacity=".3" stroke="None" d="M182 173c-2 2 0 6 1 8 1-3-1-5-1-8Z"/>
  <path fill="none" stroke="None" d="M65 178c-1-1 2 2 0 0Z"/>
  <path fill="#444547" fill-opacity=".3" stroke="None" d="M68 179c-2 2-2 5-2 7 2-2 2-5 2-7Z"/>
  <path fill="#3E3F41" fill-opacity=".3" stroke="None" d="M184 187h1l-2-5c-1 2 1 3 1 5Z"/>
  <path fill="#27282B" stroke="None" d="m63 194-4 10c2-1 6 3 6-1-1-5 2-12 0-16l-2 7Z"/>
  <path fill="#242427" stroke="None" d="M184 190c1 4 3 10 1 15 2 0 8-1 5-4-3-4-4-9-5-14h-1v3Z"/>
  <path fill="#E6E6E7" fill-opacity=".8" stroke="None" d="M183 193c2 6 0 11-2 16-8 0-12 3-18 9 1 2 3 2 5 3v-2s-3 0-2-2l5 1c3-1 5 2 7 2 11-2 27-2 35-9l-3-2c1-1 4-3 4 0l3-2c-5-7-17-2-23-4 0 0-3 0-4-2 3 3-3 4-5 4 2-5 0-11-1-15l-1 3Z"/>
  <path fill="#E8E8E9" fill-opacity=".8" stroke="None" d="m72 220 1-1 10-1s2 0 2 2c5-2-2-9-6-9-3 1-5-4-9-2l-4-6h-1c0 4-4 0-6 1l4-10-1-1c-1 6-4 6-6 11-10 1-10-3-18-1-8 3 2 12 8 11 7 0 18 8 26 6m-27-8c-3 0-9-2-9-6l9 6Z"/>
  <path fill="#A5A6A6" stroke="None" d="m45 212-9-6c0 4 6 6 9 6Z"/>
  <path fill="#252528" stroke="None" d="M70 211c-2-3-18-7-18-3s17 7 18 3Z"/>
  <path fill="#1E1F22" stroke="None" d="M198 208c-5-3-14-1-18 4 6 2 14 0 18-4Z"/>
  <path fill="#7F7F80" fill-opacity=".7" stroke="None" d="m213 211 1-2c0-3-3-1-4 0l3 2Z"/>
  <path fill="#D6D6D7" fill-opacity=".5" stroke="None" d="m83 218-10 1-1 1c3 1 9 4 13 0 0-2-2-2-2-2Z"/>
  <path fill="#6A6B6B" stroke="None" d="m168 219 3-1-5-1c-1 2 2 2 2 2Z"/>
  <path fill="#8C8C8D" stroke="None" d="m73 219 10-1-10 1Z"/>
  <path fill="#D2D3D4" fill-opacity=".6" stroke="None" d="M168 219v2c4 1 7 0 10-1-2 0-4-3-7-2l-3 1Z"/>
</svg>
