<svg xmlns="http://www.w3.org/2000/svg" viewBox="0 0 500 500">
  <path fill="#f9c3bb" fill-rule="evenodd" stroke="#f9c3bb" d="M229 24A225 225 0 0 0 26 255a225 225 0 0 0 275 216 226 226 0 0 0 170-259A226 226 0 0 0 229 24m28 52-2 30-2 43c-2 36-2 76 1 88 3 9 6 14 14 25 9 11 12 17 13 26 1 12 0 78-1 83-3 11-11 18-24 22-7 1-10 3-7 5s75 1 76-1 0-2-10-5c-24-6-25-9-25-66 0-50-1-48 15-68 12-14 16-25 16-49a1614 1614 0 0 0-7-134l-29-1h-27l-1 2m9 10a408 408 0 0 0-4 56c-3 46-4 76-2 86 7 29 26 40 41 23 13-14 15-36 9-114a1816 1816 0 0 1-4-52l-21-1c-19 0-19 0-19 2m-97 9a1737 1737 0 0 1-5 62c-6 77-4 90 14 113 12 16 13 19 13 61 0 50-2 55-22 61-11 4-12 6-6 7 9 2 68 0 68-2l-5-3-10-3c-7-2-13-8-16-16-1-5-2-8-2-45v-39l4-7c1-4 5-9 7-12 14-17 18-28 18-47a1683 1683 0 0 0-6-130c-2-2-50-1-52 0m7 11-2 30a21924 21924 0 0 1-3 44c-2 34-2 55 1 64 11 33 38 32 46-3 3-8 3-35 0-65l-2-37-2-25-1-9-18-1h-19v2m-50 4c-2 5-5 9-9 11l-3 1 4 2c4 2 6 4 7 8 1 2 1 2 3-2 1-3 3-5 5-6 4-1 5-3 3-3s-7-6-8-10l-2-5v4m232 3c-1 5-6 11-10 14-5 3-5 3-1 5 5 2 9 6 10 10s3 4 3 0c1-4 5-8 10-11l5-2-3-1c-6-2-12-11-12-17 0-3-2-2-2 2m-81 10c-6 1-7 3-7 7 0 5 2 6 15 6 14 0 18-1 18-7 0-5-3-6-13-7l-13 1m-86 17c-9 1-12 3-12 7 0 5 2 5 15 5 13 1 17-1 17-5 0-6-5-8-20-7m79 4-1 14-2 31c-2 30 0 41 6 52 9 13 19 12 27-4 5-10 5-16 4-49l-1-37v-8h-30c-3-1-3-1-3 1m-90 15-1 13a6474 6474 0 0 1-2 30c-2 28 0 39 7 50 6 9 12 10 19 3 9-11 10-18 8-71l-1-24-13-1h-17m106 12-1 3c0 4-1 5-6 7-6 3-5 5 2 6 2 0 3 2 3 4 2 5 5 5 6 0 1-3 2-4 5-5 5-1 5-2 0-6-4-2-5-3-5-6s-3-5-4-3m66 10c0 3-2 7-5 9l-3 1 3 2c2 1 4 3 4 5l2 3 1-3 5-5 3-2-2-1c-3-1-6-6-6-8l-1-2-1 1m-157 4-1 3c0 3-4 7-6 7l-3 1c-2 2 0 4 3 4s4 0 5 4c2 5 4 5 6 0 1-3 2-4 4-5 5-1 5-3 0-5-3-2-4-3-5-6 0-4-2-5-3-3m80 17c-2 1-1 5 1 6s5-3 3-5c-1-2-3-2-4-1m11 13 2 4c2 0 4-4 3-5 0-2-4-1-5 1m-102 0c-2 2 0 5 2 5 3-1 3-5 0-6l-2 1m12 10c-2 1-1 5 1 5s2-1 2-3-1-3-3-2"/>
  <path fill="#bd968f" fill-rule="evenodd" stroke="#bd968f" d="M281 90c-8 3-11 8-12 23 0 10 0 10 2 10l8-2c8-1 9-2 9-4 0-5 4-8 12-9l6-1-1-7-1-9c-1-2-19-2-23-1m37 0v20l2 37 2 47c2 34-2 48-18 68-12 15-15 25-11 42 2 11 2 14 3 43 0 28 0 31 2 34 2 4 8 8 13 9 4 0 4 0 4-2-2-6-3-18-3-42 0-38 1-44 11-59 20-28 23-39 21-75l-2-20v-2c1-1 1-14-2-56-2-35-3-38-10-42-4-3-12-4-12-2m-129 20c-6 2-9 8-10 21v9h3a241 241 0 0 1 14-4c2-7 6-10 13-10h4v-7c0-10 0-10-12-10l-12 1m36 0v16l2 35 2 51c1 29-2 38-16 57-13 18-15 25-11 47 2 7 2 15 2 36 0 26 0 27 2 31 3 4 7 7 12 8 4 0 4 0 4-2-3-10-4-65-1-76 2-6 6-14 12-22 14-21 19-38 16-64l-1-32c-2-45-4-76-8-81-2-4-13-7-15-4m-91 15c-7 4-9 10-4 15 6 4 9 4 13-1 5-5 5-7 1-12s-5-5-10-2m237 8c-5 2-8 5-9 9l-2 5c-1 1 0 2 4 7 8 7 10 7 18-1 8-7 8-9 1-18-4-4-7-5-12-2m-103 5c1 3 8 4 22 4 15-1 14-2 15 11a6568 6568 0 0 0 0 73c-4 15-14 28-21 26s-15-13-18-24c-2-9-3-10-3-3 0 6 3 17 7 23 14 19 34 9 41-20 1-8 1-36-1-69-2-23-1-22-10-21h-32m-90 16c0 3 9 4 20 4h13c1 1 3 44 2 66 0 21-7 35-18 37-7 1-18-13-20-25-1-6-2-5-1 2 2 25 21 37 34 22 11-13 13-32 9-82-1-25-1-25-8-24-5 1-23 0-28-1l-3 1m108 23c-1 2-2 4-5 5-4 2-5 3-2 3s6 2 7 5 3 3 3 0c0-2 3-5 5-5 3 0 3-2-1-4-1-1-4-3-4-5l-2-3-1 4m-90 12c-1 3-6 8-9 8l-1 1 4 1c1 0 3 1 4 4l2 3 2-3c1-3 2-4 4-5 3 0 4-2 2-2s-7-5-7-7c-1-2-1-2-1 0m162 6c-4 3-5 7-2 11 4 4 6 4 10 0 8-7 0-17-8-11m-82 9 1 2 1-1c0-2-1-2-2-1m12 11v2l2-1c0-2-1-2-2-1m-103 1c0 2 1 3 2 1v-1h-2m11 12c0 1 2 1 3-1l-1-1-2 2m1 173c-5 1-12 6-15 10l-2 3 2 3c3 4 7 5 30 5s29-1 32-5c2-4-2-9-13-14-4-2-27-3-34-2m91 0c-8 2-17 10-17 14 0 7 6 8 33 8 28 0 35-1 35-8 0-3-3-6-11-11-6-3-6-3-21-4l-19 1"/>
</svg>
