<svg xmlns="http://www.w3.org/2000/svg" width="18" height="18" viewBox="0 0 48 48">
  <path fill="currentColor" fill-rule="evenodd" d="M24 0A24 24 0 0 0 4.6 38l-3 9 9.2-3A24 24 0 1 0 24 0Zm-6.7 12.2c-.5-1.1-.8-1.2-1.5-1.2H15c-1 0-2 .2-2.5.8-.7.8-2.4 2.4-2.4 5.9 0 3.4 2.5 6.8 2.8 7.2.4.5 4.9 7.7 12 10.6 5.5 2.3 7.1 2 8.4 1.8 1.8-.4 4-1.8 4.7-3.4.5-1.6.5-3 .4-3.3-.2-.3-.7-.5-1.4-.9-.7-.3-4-2-4.7-2.2-.7-.3-1.3-.2-1.8.5l-1.8 2.5c-.5.4-1.2.5-1.7.2-.8-.3-3-1-5.7-3.4-2-1.9-3.4-4.2-3.9-4.9-.4-.7 0-1 .3-1.5l1-1.1c.4-.4.6-.6.8-1.1.3-.5.1-1 0-1.3l-2.2-5.2Z"/>
</svg>
